<?xml version="1.0" encoding="UTF-8" standalone="no"?> <svg width="48" height="48" viewBox="0 0 48 48" fill="none" xmlns="http://www.w3.org/2000/svg">
<path d="M11 7H5C3.89543 7 3 7.89543 3 9V39C3 40.1046 3.89543 41 5 41H11C12.1046 41 13 40.1046 13 39V9C13 7.89543 12.1046 7 11 7Z" fill="#009AE0"/>
<path d="M8 41H5C4.46957 41 3.96086 40.7893 3.58579 40.4142C3.21071 40.0391 3 39.5304 3 39V9C3 8.46957 3.21071 7.96086 3.58579 7.58579C3.96086 7.21071 4.46957 7 5 7H8V41Z" fill="#0081BD"/>
<path d="M24 7H18C16.8954 7 16 7.89543 16 9V39C16 40.1046 16.8954 41 18 41H24C25.1046 41 26 40.1046 26 39V9C26 7.89543 25.1046 7 24 7Z" fill="#00CF66"/>
<path d="M21 41H18C17.4696 41 16.9609 40.7893 16.5858 40.4142C16.2107 40.0391 16 39.5304 16 39V9C16 8.46957 16.2107 7.96086 16.5858 7.58579C16.9609 7.21071 17.4696 7 18 7H21V41Z" fill="#00B157"/>
<path d="M35.7167 6.53736L29.9211 8.09027C28.8542 8.37616 28.221 9.47283 28.5069 10.5398L36.2715 39.5175C36.5574 40.5845 37.654 41.2176 38.721 40.9317L44.5165 39.3788C45.5834 39.093 46.2166 37.9963 45.9307 36.9293L38.1662 7.95157C37.8803 6.88464 36.7836 6.25147 35.7167 6.53736Z" fill="#FD3730"/>
<path d="M41.619 40.155L38.719 40.931C38.4653 40.999 38.2006 41.0165 37.9402 40.9822C37.6797 40.948 37.4286 40.8628 37.2011 40.7315C36.9736 40.6002 36.7742 40.4253 36.6142 40.217C36.4543 40.0086 36.337 39.7707 36.269 39.517L28.508 10.539C28.3708 10.0267 28.4428 9.48097 28.7079 9.02172C28.9731 8.56247 29.4098 8.22733 29.922 8.08999L32.822 7.31299L41.619 40.155Z" fill="#D3241F"/>
<path d="M11 42H5C4.20435 42 3.44129 41.6839 2.87868 41.1213C2.31607 40.5587 2 39.7956 2 39V9C2 8.20435 2.31607 7.44129 2.87868 6.87868C3.44129 6.31607 4.20435 6 5 6H11C11.7956 6 12.5587 6.31607 13.1213 6.87868C13.6839 7.44129 14 8.20435 14 9V39C14 39.7956 13.6839 40.5587 13.1213 41.1213C12.5587 41.6839 11.7956 42 11 42ZM5 8C4.73478 8 4.48043 8.10536 4.29289 8.29289C4.10536 8.48043 4 8.73478 4 9V39C4 39.2652 4.10536 39.5196 4.29289 39.7071C4.48043 39.8946 4.73478 40 5 40H11C11.2652 40 11.5196 39.8946 11.7071 39.7071C11.8946 39.5196 12 39.2652 12 39V9C12 8.73478 11.8946 8.48043 11.7071 8.29289C11.5196 8.10536 11.2652 8 11 8H5Z" fill="black"/>
<path d="M10 14H6C5.73478 14 5.48043 13.8946 5.29289 13.7071C5.10536 13.5196 5 13.2652 5 13C5 12.7348 5.10536 12.4804 5.29289 12.2929C5.48043 12.1054 5.73478 12 6 12H10C10.2652 12 10.5196 12.1054 10.7071 12.2929C10.8946 12.4804 11 12.7348 11 13C11 13.2652 10.8946 13.5196 10.7071 13.7071C10.5196 13.8946 10.2652 14 10 14Z" fill="black"/>
<path d="M10 36H6C5.73478 36 5.48043 35.8946 5.29289 35.7071C5.10536 35.5196 5 35.2652 5 35C5 34.7348 5.10536 34.4804 5.29289 34.2929C5.48043 34.1054 5.73478 34 6 34H10C10.2652 34 10.5196 34.1054 10.7071 34.2929C10.8946 34.4804 11 34.7348 11 35C11 35.2652 10.8946 35.5196 10.7071 35.7071C10.5196 35.8946 10.2652 36 10 36Z" fill="black"/>
<path d="M24 42H18C17.2044 42 16.4413 41.6839 15.8787 41.1213C15.3161 40.5587 15 39.7956 15 39V9C15 8.20435 15.3161 7.44129 15.8787 6.87868C16.4413 6.31607 17.2044 6 18 6H24C24.7956 6 25.5587 6.31607 26.1213 6.87868C26.6839 7.44129 27 8.20435 27 9V39C27 39.7956 26.6839 40.5587 26.1213 41.1213C25.5587 41.6839 24.7956 42 24 42ZM18 8C17.7348 8 17.4804 8.10536 17.2929 8.29289C17.1054 8.48043 17 8.73478 17 9V39C17 39.2652 17.1054 39.5196 17.2929 39.7071C17.4804 39.8946 17.7348 40 18 40H24C24.2652 40 24.5196 39.8946 24.7071 39.7071C24.8946 39.5196 25 39.2652 25 39V9C25 8.73478 24.8946 8.48043 24.7071 8.29289C24.5196 8.10536 24.2652 8 24 8H18Z" fill="black"/>
<path d="M23 14H19C18.7348 14 18.4804 13.8946 18.2929 13.7071C18.1054 13.5196 18 13.2652 18 13C18 12.7348 18.1054 12.4804 18.2929 12.2929C18.4804 12.1054 18.7348 12 19 12H23C23.2652 12 23.5196 12.1054 23.7071 12.2929C23.8946 12.4804 24 12.7348 24 13C24 13.2652 23.8946 13.5196 23.7071 13.7071C23.5196 13.8946 23.2652 14 23 14Z" fill="black"/>
<path d="M23 36H19C18.7348 36 18.4804 35.8946 18.2929 35.7071C18.1054 35.5196 18 35.2652 18 35C18 34.7348 18.1054 34.4804 18.2929 34.2929C18.4804 34.1054 18.7348 34 19 34H23C23.2652 34 23.5196 34.1054 23.7071 34.2929C23.8946 34.4804 24 34.7348 24 35C24 35.2652 23.8946 35.5196 23.7071 35.7071C23.5196 35.8946 23.2652 36 23 36Z" fill="black"/>
<path d="M38.2001 42.0001C37.5407 41.9985 36.9002 41.7797 36.3776 41.3775C35.855 40.9753 35.4795 40.4121 35.3091 39.7751L27.5421 10.8001C27.3363 10.0316 27.4441 9.21286 27.8418 8.52387C28.2396 7.83488 28.8947 7.33209 29.6631 7.12609L35.4581 5.57309C36.2266 5.3694 37.0445 5.47814 37.7331 5.87556C38.4217 6.27298 38.925 6.92676 39.1331 7.69409L46.9001 36.6701C47.106 37.4386 46.9982 38.2573 46.6005 38.9463C46.2027 39.6353 45.5476 40.1381 44.7791 40.3441L38.9801 41.9001C38.7256 41.9672 38.4634 42.0008 38.2001 42.0001ZM36.2341 7.46909C36.147 7.46914 36.0603 7.48057 35.9761 7.50309L30.1811 9.05609C30.0541 9.08999 29.9351 9.1486 29.8307 9.22856C29.7264 9.30852 29.6389 9.40827 29.5731 9.52209C29.5068 9.63539 29.4638 9.76082 29.4466 9.89099C29.4294 10.0212 29.4384 10.1535 29.4731 10.2801L37.2371 39.2581C37.2711 39.385 37.3298 39.5039 37.4098 39.6081C37.4897 39.7123 37.5894 39.7997 37.7032 39.8653C37.8169 39.931 37.9425 39.9736 38.0727 39.9907C38.203 40.0078 38.3353 39.9991 38.4621 39.9651L44.2621 38.4131C44.3891 38.3791 44.5081 38.3204 44.6124 38.2404C44.7167 38.1603 44.8041 38.0605 44.8698 37.9467C44.9355 37.8328 44.978 37.7071 44.9951 37.5768C45.0121 37.4464 45.0033 37.314 44.9691 37.1871L37.2001 8.21009C37.1431 7.99748 37.0176 7.80962 36.8429 7.67564C36.6682 7.54167 36.4543 7.46906 36.2341 7.46909V7.46909Z" fill="black"/>
<path d="M32.4389 14.627C32.1964 14.6267 31.9623 14.5382 31.7802 14.3781C31.598 14.218 31.4803 13.9971 31.4489 13.7567C31.4174 13.5162 31.4744 13.2725 31.6093 13.071C31.7441 12.8694 31.9476 12.7237 32.1819 12.661L36.0459 11.625C36.173 11.5904 36.3056 11.5812 36.4363 11.598C36.5669 11.6148 36.693 11.6572 36.8072 11.7228C36.9214 11.7884 37.0215 11.876 37.1017 11.9804C37.182 12.0848 37.2409 12.2041 37.2749 12.3313C37.309 12.4586 37.3175 12.5913 37.3001 12.7219C37.2828 12.8524 37.2398 12.9783 37.1736 13.0921C37.1074 13.206 37.0194 13.3057 36.9146 13.3855C36.8098 13.4653 36.6903 13.5236 36.5629 13.557L32.6999 14.592C32.6149 14.6155 32.5271 14.6273 32.4389 14.627V14.627Z" fill="black"/>
<path d="M38.1342 35.8769C37.8916 35.8768 37.6574 35.7885 37.4751 35.6284C37.2928 35.4684 37.1748 35.2476 37.1433 35.007C37.1117 34.7665 37.1686 34.5227 37.3035 34.3211C37.4383 34.1194 37.6419 33.9736 37.8762 33.9109L41.7392 32.8759C41.9954 32.8072 42.2684 32.8431 42.4982 32.9757C42.7279 33.1083 42.8955 33.3267 42.9642 33.5829C43.0329 33.8391 42.997 34.1121 42.8644 34.3418C42.7318 34.5716 42.5134 34.7392 42.2572 34.8079L38.3942 35.8429C38.3094 35.8654 38.222 35.8769 38.1342 35.8769V35.8769Z" fill="black"/>
</svg>
