<svg id="Layer_1" data-name="Layer 1" xmlns="http://www.w3.org/2000/svg" viewBox="0 0 512 512"><title>open-book</title><path d="M0,256C0,114.62,114.62,0,256,0S512,114.63,512,256,397.37,512,256,512,0,397.38,0,256Z" fill="#00a93c"/><path d="M380.38,164.89h-5.22l-5.31.07a2.57,2.57,0,0,1-2.61-2.57V156c0-1.44-.86-2.61-1.92-2.61l-4.52,0s-17,.3-25.49.91a247.67,247.67,0,0,0-32.61,4.34,130.15,130.15,0,0,0-27.16,8.45,67.74,67.74,0,0,0-17.68,11.83,2.68,2.68,0,0,1-3.73,0,72.16,72.16,0,0,0-20.86-13.21,138.11,138.11,0,0,0-25.33-7.36A258.21,258.21,0,0,0,172.65,154c-7.38-.45-21.46-.65-21.46-.65-1.44,0-3.47,0-4.52,0s-1.92,1.17-1.92,2.61v6.45a2.55,2.55,0,0,1-2.61,2.56l-5.3-.06h-8.68a2.61,2.61,0,0,0-2.61,2.61V331.09a2.61,2.61,0,0,0,2.61,2.61h3.47c1.44,0,3.78,0,5.22.08,0,0,38.73,1.23,53.44,3.26,15.05,2.08,26.25,4.92,34.56,7.87,16.05,5.7,21,11.72,21,11.72a6.24,6.24,0,0,0,4.25,2h12a6.34,6.34,0,0,0,4.28-2s3.84-4.64,15.56-9.62a136.65,136.65,0,0,1,26.82-7.8A285.83,285.83,0,0,1,343,334.86c10.22-.74,32.12-1.12,32.12-1.12,1.44,0,3.78,0,5.22,0h3.46a2.61,2.61,0,0,0,2.61-2.61V167.5a2.61,2.61,0,0,0-2.61-2.61ZM250.25,323.48c0,1.44-1,2-2.27,1.32,0,0-22.44-12.64-50.22-16.72-12.07-1.77-40.83-3-40.83-3a2.75,2.75,0,0,1-2.6-2.72V165.6a2.55,2.55,0,0,1,2.61-2.56s5.73.12,9.63.29c7.61.34,14.54.87,20.85,1.56,6.6.73,12.52,1.64,17.83,2.66,4.12.79,7.87,1.67,11.29,2.6a110.4,110.4,0,0,1,14,4.71,72,72,0,0,1,8,4c8,4.65,10.27,8.07,10.27,8.07a10.36,10.36,0,0,1,1.42,4.8V323.48Zm107.42-21.16a2.78,2.78,0,0,1-2.6,2.74s-36.32,1.94-50.14,4.59C282.84,313.87,264,324.77,264,324.77c-1.24.72-2.26.14-2.26-1.29V191.73A10.15,10.15,0,0,1,263.2,187s2.94-4.41,12.86-9.54a102.33,102.33,0,0,1,22.29-8,199.89,199.89,0,0,1,24.75-4.35c9.89-1.15,32-2,32-2a2.51,2.51,0,0,1,2.61,2.52Z" fill="#fff"/></svg>