<?xml version="1.0" encoding="UTF-8" standalone="no"?> <svg id="Layer_1" data-name="Layer 1" xmlns="http://www.w3.org/2000/svg" viewBox="0 0 128 128"><defs><style>.cls-1{fill:#2d3e50;}.cls-2{fill:#2e79bd;}</style></defs><title>x</title><path class="cls-1" d="M119.25746,58.32136H106.4042l-1.34589-3.07259-9.609-21.96126a2.19357,2.19357,0,0,0-2.00981-1.31756H64.754V67.10689H3.26817V86.87046a2.19382,2.19382,0,0,0,2.19507,2.19513h8.93995a15.37211,15.37211,0,1,0,30.43026,0H83.164a15.37209,15.37209,0,1,0,30.43021,0h8.93995a2.19773,2.19773,0,0,0,2.19769-2.19769V63.79573A5.47438,5.47438,0,0,0,119.25746,58.32136Zm-89.638,42.55246a9.61015,9.61015,0,0,1-9.11965-12.64987c.02481-.05406.04732-.10811.06758-.16447A9.66376,9.66376,0,0,1,25.544,82.56025c.13292-.06309.26584-.12169.401-.178.10592-.04283.21179-.0856.32-.12618.18019-.06758.365-.13062.5497-.187.11709-.036.23654-.06983.35594-.10138.10362-.027.20724-.05406.31316-.07662.20949-.04951.42352-.09009.63755-.12389q.36837-.05742.74342-.08785c.08566-.00679.1735-.01128.26135-.01577h.009c.05181-.00449.10587-.00679.15992-.00679q.16225-.00674.32444-.00674t.32439.00674c.05406,0,.10817.0023.16.00679h.009c.08785.00449.17575.009.26135.01577q.3751.0304.74342.08785c.214.03379.42806.07437.63761.12389.10587.02256.20949.04962.31311.07662.10367.0293.2073.0586.30867.08785.15319.04732.30637.09688.45956.15094.15094.05411.30188.11266.44833.1735.07662.03155.15319.06534.22981.09913.04283.018.08336.03828.12618.05855.12838.0586.25681.12169.383.187q.125.06424.25007.13522c.11036.06079.22077.12389.32888.18922.12843.08111.25686.16222.383.24782a9.64509,9.64509,0,0,1,3.68346,4.76255,1.61579,1.61579,0,0,0,.07213.17126,9.61607,9.61607,0,0,1-9.1219,12.64308Zm68.76074,0a9.61015,9.61015,0,0,1-9.1196-12.64987c.02476-.05406.04727-.10811.06758-.16447a9.66358,9.66358,0,0,1,4.97658-5.49923c.13292-.06309.26584-.12169.401-.178.10587-.04283.21179-.0856.3199-.12618.18024-.06758.365-.13062.5497-.187.11715-.036.23654-.06983.35594-.10138.10362-.027.2073-.05406.31316-.07662.20954-.04951.42357-.09009.63755-.12389q.36837-.05742.74347-.08785c.0856-.00679.17345-.01128.26135-.01577h.009c.05181-.00449.10587-.00679.16-.00679q.16217-.00674.32439-.00674t.32439.00674c.05411,0,.10817.0023.16.00679h.009c.08785.00449.1757.009.2613.01577q.3751.0304.74347.08785c.214.03379.42806.07437.63755.12389.10592.02256.20949.04962.31316.07662.10362.0293.20724.0586.30862.08785.15319.04732.30642.09688.45961.15094.15094.05411.30188.11266.44833.1735.07657.03155.15319.06534.22975.09913.04283.018.08336.03828.12618.05855.12843.0586.25681.12169.383.187q.125.06424.25007.13522c.11041.06079.22077.12389.32893.18922.12843.08111.25681.16222.383.24782A9.645,9.645,0,0,1,107.43,88.05948a1.627,1.627,0,0,0,.07213.17126,9.61607,9.61607,0,0,1-9.1219,12.64308Z"/><rect class="cls-2" x="3.26817" y="21.36597" width="55.00135" height="38.9307" rx="2.83519" ry="2.83519"/></svg>