<?xml version="1.0" encoding="UTF-8" standalone="no"?> <svg width="64" height="64" viewBox="0 0 64 64" fill="none" xmlns="http://www.w3.org/2000/svg">
<path d="M58.042 42.272C57.336 41.5555 56.483 41.0008 55.5417 40.6462C54.6004 40.2916 53.5934 40.1456 52.5901 40.2182C51.5869 40.2909 50.6114 40.5805 49.731 41.0669C48.8506 41.5534 48.0864 42.2253 47.491 43.036L43.229 38.774L42.883 36H57C57.2652 36 57.5196 35.8946 57.7071 35.7071C57.8946 35.5196 58 35.2652 58 35V3C58 2.73478 57.8946 2.48043 57.7071 2.29289C57.5196 2.10536 57.2652 2 57 2H3C2.73478 2 2.48043 2.10536 2.29289 2.29289C2.10536 2.48043 2 2.73478 2 3V35C2 35.2652 2.10536 35.5196 2.29289 35.7071C2.48043 35.8946 2.73478 36 3 36H30.212L35 42.156V48.08C33.5871 47.8761 32.1456 48.109 30.8688 48.7476C29.592 49.3862 28.541 50.3999 27.8566 51.6527C27.1723 52.9056 26.8874 54.3378 27.0402 55.7571C27.1929 57.1765 27.776 58.5153 28.7112 59.5939C29.6464 60.6725 30.889 61.4394 32.2724 61.7917C33.6559 62.144 35.1139 62.0649 36.4511 61.565C37.7883 61.0652 38.9407 60.1684 39.7538 58.995C40.5668 57.8215 41.0017 56.4276 41 55V46H41.971L48.142 52.171C48.792 52.821 49.5638 53.3367 50.4131 53.6885C51.2624 54.0403 52.1727 54.2214 53.092 54.2214C54.0113 54.2214 54.9216 54.0403 55.7709 53.6885C56.6202 53.3367 57.392 52.821 58.042 52.171C58.692 51.521 59.2077 50.7492 59.5595 49.8999C59.9113 49.0506 60.0924 48.1403 60.0924 47.221C60.0924 46.3017 59.9113 45.3914 59.5595 44.5421C59.2077 43.6928 58.692 42.921 58.042 42.271V42.272ZM36.291 22.049C36.7566 21.1 36.9991 20.0571 37 19C37.0035 17.3731 36.4414 15.7955 35.4099 14.5373C34.3784 13.2792 32.9417 12.4187 31.3456 12.1031C29.7496 11.7875 28.0935 12.0366 26.6608 12.8075C25.2281 13.5785 24.108 14.8234 23.4921 16.3293C22.8762 17.8352 22.8029 19.5083 23.2847 21.0622C23.7664 22.6162 24.7734 23.9544 26.1331 24.8477C27.4928 25.7411 29.1208 26.134 30.7383 25.9593C32.3559 25.7846 33.8624 25.0531 35 23.89V30H12.8C11.7464 27.9349 10.0662 26.2564 8 25.205V12.8C10.0669 11.7473 11.7473 10.0669 12.8 8H47.206C48.2583 10.0632 49.9364 11.7405 52 12.792V25.208C49.9364 26.2595 48.2583 27.9368 47.206 30H42.133L41.992 28.876C41.9689 28.6859 41.891 28.5067 41.768 28.36L36.768 22.36C36.6431 22.2116 36.4772 22.1034 36.291 22.049ZM32.746 36H35V38.9L32.746 36ZM34 60C33.0111 60 32.0444 59.7068 31.2221 59.1573C30.3999 58.6079 29.759 57.827 29.3806 56.9134C29.0022 55.9998 28.9031 54.9945 29.0961 54.0245C29.289 53.0546 29.7652 52.1637 30.4645 51.4645C31.1637 50.7652 32.0546 50.289 33.0245 50.0961C33.9945 49.9031 34.9998 50.0022 35.9134 50.3806C36.827 50.759 37.6079 51.3999 38.1573 52.2221C38.7068 53.0444 39 54.0111 39 55C38.9984 56.3256 38.4711 57.5964 37.5338 58.5338C36.5964 59.4711 35.3256 59.9984 34 60V60ZM40 44C39.7348 44 39.4804 44.1054 39.2929 44.2929C39.1054 44.4804 39 44.7348 39 45V50.11C38.4221 49.5214 37.7451 49.039 37 48.685V25.762L40.044 29.415L41.867 44H40ZM43.967 45.168C43.9898 45.0724 43.9982 44.974 43.992 44.876L43.633 42.006L46.505 44.878C46.2288 45.6553 46.0917 46.4751 46.1 47.3L43.967 45.168ZM56.627 50.757C55.9277 51.4563 55.0368 51.9325 54.0669 52.1254C53.097 52.3184 52.0917 52.2193 51.178 51.8409C50.2644 51.4625 49.4835 50.8216 48.9341 49.9994C48.3847 49.1771 48.0914 48.2104 48.0914 47.2215C48.0914 46.2326 48.3847 45.2659 48.9341 44.4436C49.4835 43.6214 50.2644 42.9805 51.178 42.6021C52.0917 42.2237 53.097 42.1246 54.0669 42.3176C55.0368 42.5105 55.9277 42.9867 56.627 43.686C57.5647 44.6237 58.0914 45.8954 58.0914 47.2215C58.0914 48.5476 57.5647 49.8193 56.627 50.757V50.757Z" fill="black"/>
<path d="M50.971 45.1C50.5513 45.5195 50.2655 46.0541 50.1497 46.636C50.0339 47.218 50.0932 47.8212 50.3203 48.3695C50.5473 48.9177 50.9318 49.3863 51.4252 49.716C51.9185 50.0457 52.4986 50.2216 53.092 50.2216C53.6854 50.2216 54.2654 50.0457 54.7588 49.716C55.2522 49.3863 55.6367 48.9177 55.8637 48.3695C56.0907 47.8212 56.1501 47.218 56.0343 46.636C55.9184 46.0541 55.6326 45.5195 55.213 45.1C54.6418 44.5541 53.8821 44.2495 53.092 44.2495C52.3019 44.2495 51.5422 44.5541 50.971 45.1Z" fill="black"/>
<path d="M44 22C44.5933 22 45.1734 21.8241 45.6667 21.4944C46.1601 21.1648 46.5446 20.6962 46.7716 20.1481C46.9987 19.5999 47.0581 18.9967 46.9424 18.4147C46.8266 17.8328 46.5409 17.2982 46.1213 16.8787C45.7018 16.4591 45.1672 16.1734 44.5853 16.0576C44.0033 15.9419 43.4001 16.0013 42.852 16.2284C42.3038 16.4554 41.8352 16.8399 41.5056 17.3333C41.1759 17.8266 41 18.4067 41 19C41 19.7957 41.3161 20.5587 41.8787 21.1213C42.4413 21.6839 43.2044 22 44 22Z" fill="black"/>
<path d="M16 16C15.4067 16 14.8266 16.1759 14.3333 16.5056C13.8399 16.8352 13.4554 17.3038 13.2284 17.8519C13.0013 18.4001 12.9419 19.0033 13.0576 19.5853C13.1734 20.1672 13.4591 20.7018 13.8787 21.1213C14.2982 21.5409 14.8328 21.8266 15.4147 21.9424C15.9967 22.0581 16.5999 21.9987 17.1481 21.7716C17.6962 21.5446 18.1648 21.1601 18.4944 20.6667C18.8241 20.1734 19 19.5933 19 19C19 18.2044 18.6839 17.4413 18.1213 16.8787C17.5587 16.3161 16.7957 16 16 16V16Z" fill="black"/>
<path d="M34 52C33.4067 52 32.8266 52.1759 32.3333 52.5056C31.8399 52.8352 31.4554 53.3038 31.2284 53.852C31.0013 54.4001 30.9419 55.0033 31.0576 55.5853C31.1734 56.1672 31.4591 56.7018 31.8787 57.1213C32.2982 57.5409 32.8328 57.8266 33.4147 57.9424C33.9967 58.0581 34.5999 57.9987 35.148 57.7716C35.6962 57.5446 36.1648 57.1601 36.4944 56.6667C36.8241 56.1734 37 55.5933 37 55C37 54.2044 36.6839 53.4413 36.1213 52.8787C35.5587 52.3161 34.7957 52 34 52Z" fill="black"/>
<path d="M21 52H18V44C18 43.7348 17.8947 43.4804 17.7071 43.2929C17.5196 43.1054 17.2652 43 17 43H7.00002C6.7348 43 6.48045 43.1054 6.29291 43.2929C6.10538 43.4804 6.00002 43.7348 6.00002 44V52H3.00002C2.79705 51.9997 2.5988 52.0612 2.43162 52.1764C2.26444 52.2915 2.13624 52.4547 2.06407 52.6444C1.9919 52.8341 1.97916 53.0413 2.02756 53.2384C2.07596 53.4356 2.1832 53.6133 2.33502 53.748L11.335 61.748C11.5182 61.9111 11.7548 62.0012 12 62.0012C12.2452 62.0012 12.4819 61.9111 12.665 61.748L21.665 53.748C21.8168 53.6133 21.9241 53.4356 21.9725 53.2384C22.0209 53.0413 22.0081 52.8341 21.936 52.6444C21.8638 52.4547 21.7356 52.2915 21.5684 52.1764C21.4012 52.0612 21.203 51.9997 21 52V52Z" fill="black"/>
</svg>
